<?xml version="1.0" encoding="UTF-8" standalone="no"?>
<!-- Created with Inkscape (http://www.inkscape.org/) -->

<svg
   xmlns:dc="http://purl.org/dc/elements/1.1/"
   xmlns:cc="http://creativecommons.org/ns#"
   xmlns:rdf="http://www.w3.org/1999/02/22-rdf-syntax-ns#"
   xmlns:svg="http://www.w3.org/2000/svg"
   xmlns="http://www.w3.org/2000/svg"
   xmlns:xlink="http://www.w3.org/1999/xlink"
   xmlns:sodipodi="http://sodipodi.sourceforge.net/DTD/sodipodi-0.dtd"
   xmlns:inkscape="http://www.inkscape.org/namespaces/inkscape"
   width="240"
   height="368"
   viewBox="0 0 240 368.00001"
   id="svg2"
   version="1.1"
   inkscape:version="0.91 r13725"
   sodipodi:docname="controlpanel.svg"
   inkscape:export-filename="/home/fukuchi/work/LooneyStudio/sketch/proto/data/controlpanel.png"
   inkscape:export-xdpi="90"
   inkscape:export-ydpi="90">
  <defs
     id="defs4">
    <marker
       inkscape:stockid="Arrow1Send"
       orient="auto"
       refY="0.0"
       refX="0.0"
       id="Arrow1Send"
       style="overflow:visible;"
       inkscape:isstock="true">
      <path
         id="path4215"
         d="M 0.0,0.0 L 5.0,-5.0 L -12.5,0.0 L 5.0,5.0 L 0.0,0.0 z "
         style="fill-rule:evenodd;stroke:#000000;stroke-width:1pt;stroke-opacity:1;fill:#ffffff;fill-opacity:1"
         transform="scale(0.2) rotate(180) translate(6,0)" />
    </marker>
    <marker
       inkscape:stockid="Arrow1Mend"
       orient="auto"
       refY="0.0"
       refX="0.0"
       id="Arrow1Mend"
       style="overflow:visible;"
       inkscape:isstock="true">
      <path
         id="path4209"
         d="M 0.0,0.0 L 5.0,-5.0 L -12.5,0.0 L 5.0,5.0 L 0.0,0.0 z "
         style="fill-rule:evenodd;stroke:#000000;stroke-width:1pt;stroke-opacity:1;fill:#ffffff;fill-opacity:1"
         transform="scale(0.4) rotate(180) translate(10,0)" />
    </marker>
    <marker
       inkscape:stockid="Arrow1Lend"
       orient="auto"
       refY="0.0"
       refX="0.0"
       id="Arrow1Lend"
       style="overflow:visible;"
       inkscape:isstock="true">
      <path
         id="path4203"
         d="M 0.0,0.0 L 5.0,-5.0 L -12.5,0.0 L 5.0,5.0 L 0.0,0.0 z "
         style="fill-rule:evenodd;stroke:#0d0000;stroke-width:1pt;stroke-opacity:1;fill:#ffffff;fill-opacity:1"
         transform="scale(0.8) rotate(180) translate(12.5,0)" />
    </marker>
  </defs>
  <sodipodi:namedview
     id="base"
     pagecolor="#ffffff"
     bordercolor="#666666"
     borderopacity="1.0"
     inkscape:pageopacity="1"
     inkscape:pageshadow="2"
     inkscape:zoom="2.8"
     inkscape:cx="74.507933"
     inkscape:cy="119.62452"
     inkscape:document-units="px"
     inkscape:current-layer="layer1"
     showgrid="false"
     units="px"
     inkscape:window-width="1920"
     inkscape:window-height="1005"
     inkscape:window-x="0"
     inkscape:window-y="27"
     inkscape:window-maximized="1">
    <inkscape:grid
       type="xygrid"
       id="grid8936" />
  </sodipodi:namedview>
  <metadata
     id="metadata7">
    <rdf:RDF>
      <cc:Work
         rdf:about="">
        <dc:format>image/svg+xml</dc:format>
        <dc:type
           rdf:resource="http://purl.org/dc/dcmitype/StillImage" />
        <dc:title />
      </cc:Work>
    </rdf:RDF>
  </metadata>
  <g
     inkscape:label="Layer 1"
     inkscape:groupmode="layer"
     id="layer1"
     transform="translate(0,-684.36216)">
    <rect
       style="opacity:1;fill:#ffffff;fill-opacity:1;stroke:#0d0000;stroke-width:2;stroke-linecap:round;stroke-linejoin:round;stroke-miterlimit:4;stroke-dasharray:none;stroke-dashoffset:0;stroke-opacity:1"
       id="rect4136"
       width="239"
       height="367"
       x="0.5"
       y="684.86218" />
    <g
       style="font-style:normal;font-variant:normal;font-weight:normal;font-stretch:normal;font-size:140.125px;line-height:125%;font-family:BalloonDroShaD;-inkscape-font-specification:'BalloonDroShaD, Normal';text-align:start;letter-spacing:0px;word-spacing:0px;writing-mode:lr-tb;text-anchor:start;fill:#000000;fill-opacity:1;stroke:none;stroke-width:1px;stroke-linecap:butt;stroke-linejoin:miter;stroke-opacity:1"
       id="text4136"
       transform="matrix(0.33967935,0,0,0.33967935,202.73682,577.48822)">
      <g
         id="g5899"
         transform="matrix(1.3820965,0,0,1.3820965,222.42903,-127.07487)">
        <g
           transform="translate(-58.119667,6.7752009)"
           id="g4180">
          <path
             d="m -206.73352,342.95905 2.73682,-6.021 q 1.98419,-4.24207 4.0368,-5.81574 2.12103,-1.64209 5.74731,-1.64209 4.72101,0 9.0315,1.29999 4.31048,1.29999 5.54205,3.07892 l 6.43152,9.30518 q 1.23157,1.77893 1.23157,3.21576 0,2.05261 -2.59998,7.59466 l -29.28393,62.12573 q -1.9842,4.24207 -3.48944,5.6789 -1.43683,1.36841 -3.83155,1.36841 -8.62097,0 -14.4367,-4.03681 l -8.27887,-5.81573 q -2.59998,-1.77893 -2.59998,-4.24207 0,-1.77893 1.43683,-4.99469 l 8.34729,-18.40509 -7.73151,-37.49438 q -1.71051,-9.16834 -1.71051,-10.81043 0,-7.0473 8.21045,-7.0473 11.83673,0 15.46302,4.85785 l 5.74731,7.79993 z m -4.99469,19.36297 q -0.3421,-9.30517 -1.43683,-15.53143 l -1.29999,-7.79993 q -0.41052,-2.53155 -0.95788,-3.3526 -0.54737,-0.88946 -2.18946,-1.43683 -5.33679,-1.71051 -10.94726,-1.71051 -5.47363,0 -5.47363,4.37891 0,1.02631 0.27368,2.59997 1.71051,9.3736 2.18945,12.17884 l 7.25256,34.07336 -9.37359,20.66297 q -0.54737,1.09472 -0.54737,2.18945 0,1.57367 1.02631,2.39471 1.02631,0.82105 4.31049,1.84735 5.19995,1.57367 9.03149,1.57367 2.32629,0 3.83154,-1.29998 1.57367,-1.29999 3.07892,-4.51575 l 29.69446,-63.56256 q 2.39471,-5.19995 2.39471,-7.66309 0,-1.57367 -0.88946,-2.46313 -0.88947,-0.88947 -3.28418,-1.71051 -4.99469,-1.57367 -9.57886,-1.57367 -2.80523,0 -4.3789,1.36841 -1.50525,1.3684 -3.07892,5.26837 l -9.64728,24.08398 z"
             id="path4151"
             inkscape:connector-curvature="0" />
        </g>
        <g
           transform="translate(-123.7474,-90.283181)"
           id="g4177">
          <path
             inkscape:connector-curvature="0"
             id="path4241"
             d="m -184.98632,487.71845 5.6789,8.55255 q 1.71051,2.46313 2.05261,3.3526 0.41052,0.88947 0.41052,2.59998 0,3.89996 -2.32629,10.19464 -1.02631,2.73681 -2.46314,3.62628 -1.3684,0.82104 -4.72101,0.82104 l -9.51043,0 q -4.37891,0 -8.34729,0.13684 -6.63678,0 -7.86835,-0.27368 -1.16315,-0.27368 -3.62628,-2.25787 l -8.68939,-6.77362 q -7.32099,-5.74732 -7.32099,-12.31568 0,-1.77893 0.54737,-4.24206 l 2.18945,-10.26306 q -3.3526,-0.88947 -3.3526,-4.99469 0,-2.73682 0.95789,-7.38941 0.95788,-4.65258 1.98419,-6.91046 1.84735,-4.0368 6.77362,-4.3789 l 1.98419,-7.93677 q -5.61047,-0.20526 -5.61047,-5.54206 0,-3.55786 1.98419,-9.98938 2.05261,-6.43151 3.62628,-7.79992 1.50525,-1.29999 6.15784,-1.77893 4.65258,-0.54737 15.12091,-0.54737 2.87365,0 5.19995,0 l 16.4209,0.27369 q 4.3789,0.0684 6.02099,0.61578 1.71051,0.47894 2.80524,2.05261 l 6.22626,9.23676 q 0.95788,1.36841 0.95788,2.94207 0,4.44733 -2.39471,11.08411 -1.29999,3.76312 -2.46314,4.85785 -1.16314,1.02631 -3.89996,1.02631 -0.41052,0 -4.58417,-0.13684 l -3.3526,-0.13685 -11.69989,-0.20526 q -1.0263,0 -1.98419,0 -0.41052,0 -1.77893,0.0684 l 0.95789,1.36841 q 1.3684,0.0684 6.08941,0.0684 4.99469,0.0684 7.11572,0.82105 2.18946,0.6842 3.48945,2.80523 l 4.721,7.18415 q 1.09473,1.50525 1.23157,1.91577 0.20526,0.3421 0.20526,1.36841 0,4.10522 -2.59997,11.42621 -1.09473,3.21575 -2.25788,4.51574 -1.16314,1.23157 -2.87365,1.16315 l -3.3526,-0.20526 -3.83155,0 z" />
          <path
             inkscape:connector-curvature="0"
             style="fill:#ffffff;fill-opacity:1"
             id="path4201"
             d="m -200.51775,459.18714 1.29999,-5.47364 q 0.27368,-1.0263 0.27368,-1.77893 0,-1.50525 -3.3526,-3.07891 l -4.99469,-2.3263 25.52081,0.20526 2.3263,0 q 4.0368,-0.0684 5.19995,-2.12103 1.50525,-2.73682 2.66839,-7.32098 1.23157,-4.58417 1.23157,-7.59467 0,-2.32629 -1.16315,-2.87366 -1.16314,-0.54736 -6.43151,-0.6842 l -15.66828,-0.41052 -6.22626,0 q -11.4262,0 -17.03668,0.75262 -2.12103,0.41052 -2.94208,1.84735 -0.75262,1.43683 -2.80523,8.75781 -1.29999,5.95258 -1.29999,7.04731 0,1.23156 1.16315,2.05261 1.16314,0.82104 2.53155,0.54736 0.3421,-0.0684 0.41052,-0.0684 l 2.25788,0 -3.3526,12.79462 q -3.14734,0.0684 -4.31049,0.54736 -1.09472,0.41052 -1.84735,1.77893 -0.88946,1.77893 -1.91577,6.43152 -0.95789,4.65259 -0.95789,6.97888 0,2.05262 0.75263,2.80524 0.82104,0.75262 3.14734,0.95789 l -2.94208,13.34198 q -0.41052,1.77893 -0.41052,3.21576 0,2.94207 2.12103,6.08941 2.18945,3.14734 5.40521,4.78943 3.28418,1.71051 8.82623,1.71051 l 8.00519,-0.20526 9.92096,0 q 3.89997,0 5.13153,-0.82105 1.29999,-0.88946 2.59998,-4.3789 2.05261,-5.54205 2.05261,-9.30518 0,-2.39471 -1.23157,-3.14734 -1.23156,-0.75262 -4.85785,-0.6842 l -17.31036,0.3421 2.6684,-11.42621 12.99987,0.20526 q 2.6684,0 4.65259,0.20527 1.16315,0.0684 1.84735,0.0684 1.9842,0 2.94208,-0.95789 1.02631,-1.02631 2.18945,-4.31049 2.80524,-7.66308 2.80524,-11.76831 0,-1.71051 -1.29999,-2.18945 -1.23156,-0.54736 -5.61047,-0.54736 l -14.98407,0 z" />
        </g>
        <g
           transform="translate(-15.152288,5.9797172)"
           id="g4171">
          <path
             inkscape:connector-curvature="0"
             d="m -421.23151,334.61176 3.07892,-2.80524 q 3.28418,-3.0105 6.3631,-3.0105 3.42102,0 5.74731,3.28418 l 5.6789,7.86835 q 6.3631,8.89465 6.3631,25.45239 0,22.71558 -10.60517,40.71014 -5.54205,9.3736 -13.27356,14.02619 -6.97888,4.17364 -13.88934,4.17364 -6.91046,0 -12.31567,-3.76312 l -9.30518,-6.49994 q -13.7525,-9.51044 -13.7525,-29.96814 0,-9.23675 3.21576,-19.91034 3.21576,-10.67358 8.27887,-18.19983 5.13153,-7.66308 12.65777,-12.52093 8.21045,-5.33679 15.3946,-5.33679 3.14733,0 4.3789,1.29998 1.29999,1.29999 1.98419,5.19996 z m -3.62628,6.29467 0.95789,-5.81573 q 0.20526,-1.23157 0.20526,-1.91577 0,-3.0105 -4.10523,-3.0105 -3.62628,0 -8.55255,2.25787 -4.92627,2.18946 -9.37359,5.88416 -9.51044,7.79992 -14.91565,23.19452 -4.17365,11.97357 -4.17365,23.4682 0,11.63147 6.08942,20.25244 7.18414,10.0578 18.06299,10.0578 11.42621,0 20.93664,-9.7157 8.62097,-8.68939 13.13672,-23.4682 3.96839,-12.93146 3.96839,-25.11029 0,-11.01569 -2.6684,-18.54193 -2.59998,-7.52625 -6.43152,-7.52625 -2.18945,0 -4.58417,2.18946 l -8.55255,7.79992 z m -1.0263,4.72101 q 2.05261,6.15784 2.05261,13.7525 0,6.15784 -1.77893,13.61567 -1.77893,7.45782 -4.44733,12.52093 -4.31049,8.21045 -8.21045,8.21045 -2.39471,0 -4.0368,-2.87366 -1.64209,-2.87365 -1.64209,-7.11572 0,-8.68939 4.3789,-18.67877 3.62629,-8.27887 9.98938,-12.58936 1.84735,-1.29999 2.18946,-1.98419 0.41052,-0.75262 1.50525,-4.85785 z m -8.75782,42.42066 q 5.6789,-7.04731 7.38941,-20.45771 -3.0105,4.10523 -4.99469,9.64728 -1.98419,5.54205 -2.39472,10.81043 z"
             id="path4145" />
        </g>
        <g
           transform="translate(-33.335034,3.2977486)"
           id="g4174">
          <path
             inkscape:connector-curvature="0"
             d="m -340.63226,350.00635 3.6947,-13.88935 q 1.57367,-5.88415 6.91046,-5.88415 4.72101,0 9.78412,2.05261 5.06311,1.98419 6.63678,4.51575 l 5.54205,9.03149 q 0.95789,1.57367 0.95789,3.14734 0,2.12103 -3.21576,14.57355 -2.25788,9.3736 -7.45783,27.43658 l -7.3894,23.4682 q -0.54736,1.71051 -0.54736,2.46314 0,0.54736 0.27368,1.71051 0.27368,1.09473 0.27368,1.71051 0,3.07892 -6.49994,3.07892 -8.21045,0 -14.50513,-4.78943 l -7.25256,-5.40521 q -2.6684,-1.9842 -3.28418,-3.21576 -0.61578,-1.29999 -1.57367,-6.63678 l -0.47894,-2.6684 -4.78943,17.65247 q -0.6842,2.59997 -1.98419,3.62628 -1.29999,0.95788 -3.96839,0.95788 -7.7315,0 -12.99987,-4.10522 l -8.75782,-6.7052 q -2.39471,-1.84735 -2.39471,-4.10522 0,-3.0105 2.53155,-12.17884 l 12.11042,-44.54168 q 3.3526,-12.31568 5.47363,-17.17353 2.05261,-4.58416 6.84204,-4.58416 5.19995,0 10.81043,2.46313 5.67889,2.46313 7.59466,5.54205 l 7.66309,12.45252 z m -2.53156,24.90503 q -0.61578,-20.04718 -5.54205,-32.70496 -1.50525,-3.6947 -2.73682,-4.92627 -1.23157,-1.23157 -4.99469,-2.87366 -6.29468,-2.66839 -10.3999,-2.66839 -2.46314,0 -3.55786,1.29999 -1.02631,1.23156 -2.53156,6.15783 l -1.09472,3.28418 -1.02631,3.6947 -1.98419,6.29468 -12.11041,45.08905 q -2.25788,8.21045 -2.25788,9.98938 0,1.50525 0.95789,2.46314 1.0263,0.88946 3.6947,1.91577 4.92627,1.77893 8.68939,1.77893 2.73682,0 4.10523,-1.09473 1.43683,-1.09472 2.12103,-3.76312 l 6.63678,-26.06818 q 2.32629,-9.23675 3.42102,-19.77349 0.27368,2.18945 0.82105,6.02099 0.61578,4.58417 1.0263,7.45783 l 4.51575,29.14709 q 0.61578,4.10523 4.0368,5.81574 5.40521,2.80523 11.97357,2.80523 5.74732,0 5.74732,-3.07892 0,-0.47894 -0.41052,-2.25787 -0.13684,-0.82104 -0.13684,-1.09473 0,-0.61578 0.41052,-1.84735 l 8.21045,-26.34185 q 4.85785,-17.31037 7.25256,-27.71027 l 1.16315,-4.44733 0.75262,-3.42102 q 0.82105,-3.6947 0.82105,-4.58417 0,-1.64209 -1.02631,-2.59997 -0.95788,-0.95789 -3.89996,-2.18945 -5.54206,-2.3263 -9.51044,-2.3263 -3.55786,0 -4.58417,3.76312 l -3.55786,13.88935 q -1.71051,6.02099 -2.80524,12.93146 -1.50524,8.34729 -2.18945,11.97357 z"
             id="path4147" />
        </g>
        <g
           transform="translate(0,5.9797172)"
           id="g4165">
          <path
             inkscape:connector-curvature="0"
             d="m -499.09393,334.61176 3.07892,-2.80524 q 3.28418,-3.0105 6.36309,-3.0105 3.42102,0 5.74732,3.28418 l 5.67889,7.86835 q 6.3631,8.89465 6.3631,25.45239 0,22.71558 -10.60516,40.71014 -5.54206,9.3736 -13.27356,14.02619 -6.97888,4.17364 -13.88935,4.17364 -6.91046,0 -12.31567,-3.76312 l -9.30518,-6.49994 q -13.7525,-9.51044 -13.7525,-29.96814 0,-9.23675 3.21576,-19.91034 3.21576,-10.67358 8.27887,-18.19983 5.13153,-7.66308 12.65778,-12.52093 8.21045,-5.33679 15.39459,-5.33679 3.14734,0 4.37891,1.29998 1.29998,1.29999 1.98419,5.19996 z m -3.62628,6.29467 0.95788,-5.81573 q 0.20526,-1.23157 0.20526,-1.91577 0,-3.0105 -4.10522,-3.0105 -3.62628,0 -8.55255,2.25787 -4.92627,2.18946 -9.3736,5.88416 -9.51044,7.79992 -14.91565,23.19452 -4.17364,11.97357 -4.17364,23.4682 0,11.63147 6.08941,20.25244 7.18415,10.0578 18.06299,10.0578 11.42621,0 20.93665,-9.7157 8.62097,-8.68939 13.13671,-23.4682 3.96839,-12.93146 3.96839,-25.11029 0,-11.01569 -2.6684,-18.54193 -2.59997,-7.52625 -6.43152,-7.52625 -2.18945,0 -4.58416,2.18946 l -8.55255,7.79992 z m -1.02631,4.72101 q 2.05261,6.15784 2.05261,13.7525 0,6.15784 -1.77893,13.61567 -1.77893,7.45782 -4.44733,12.52093 -4.31048,8.21045 -8.21045,8.21045 -2.39471,0 -4.0368,-2.87366 -1.64209,-2.87365 -1.64209,-7.11572 0,-8.68939 4.37891,-18.67877 3.62628,-8.27887 9.98938,-12.58936 1.84735,-1.29999 2.18945,-1.98419 0.41052,-0.75262 1.50525,-4.85785 z m -8.75781,42.42066 q 5.67889,-7.04731 7.3894,-20.45771 -3.0105,4.10523 -4.99469,9.64728 -1.98419,5.54205 -2.39471,10.81043 z"
             id="path4143" />
        </g>
        <g
           transform="translate(18.009431,7.7436086)"
           id="g4168">
          <path
             id="path4245"
             d="m -565.2429,386.95484 9.16833,0 q 2.94208,0.0684 4.24207,1.98419 l 6.3631,10.0578 q 0.82104,1.23157 0.82104,2.18945 0,0.34211 -1.16314,5.47364 -2.39472,8.55255 -3.69471,10.46832 -1.23156,1.84735 -4.51574,1.84735 l -21.96296,0 q -2.87365,-0.13684 -4.10522,-1.16315 l -9.7157,-7.52624 q -3.42102,-2.59998 -6.91046,-8.48413 -3.42102,-5.88416 -3.42102,-9.0315 0,-3.3526 3.28418,-15.73669 l 9.03149,-33.38916 q 1.16315,-4.58417 3.62629,-12.45252 1.16314,-3.76312 2.73681,-5.06311 1.57367,-1.29998 4.85785,-1.29998 6.63678,0 13.88934,3.01049 1.91578,0.75263 2.59998,1.57367 0.6842,0.82105 2.80524,4.58417 4.31048,7.18414 4.31048,8.75781 0,0.75263 -0.61578,2.80524 l -11.63147,41.39435 z"
             inkscape:connector-curvature="0" />
          <path
             style="fill:#ffffff;fill-opacity:1"
             id="path4141"
             d="m -576.87437,389.55481 14.77881,-53.2995 q 0.75262,-2.59997 0.75262,-3.3526 0,-1.57367 -1.0263,-2.25787 -0.95789,-0.75262 -4.58417,-1.77893 -6.3631,-1.91577 -10.26306,-1.91577 -2.39472,0 -3.28418,1.09473 -0.82105,1.09472 -2.18946,5.67889 -1.57367,5.26837 -4.31048,15.46301 l -6.22626,22.57874 q -1.36841,4.92627 -3.0105,12.38409 -1.64209,7.38941 -1.64209,8.55255 0,1.84735 2.12104,5.81574 2.12103,3.96838 4.99469,7.3894 2.12103,2.59998 3.07891,3.14734 0.95789,0.47894 3.76313,0.47894 l 20.1156,0.20526 q 2.73681,0.0684 4.0368,-0.47894 1.29999,-0.61578 2.12103,-2.25787 1.36841,-2.6684 2.94208,-8.07361 1.57367,-5.40521 1.57367,-7.52624 0,-2.39472 -2.94208,-2.3263 l -20.7998,0.47894 z"
             inkscape:connector-curvature="0" />
        </g>
      </g>
      <g
         id="g5882"
         transform="matrix(1.3820965,0,0,1.3820965,-34.805092,8.5596124)">
        <g
           transform="translate(-111.11678,3.5030086)"
           id="g4189">
          <path
             d="m 27.264282,344.19061 1.847351,-6.97888 q 1.231568,-4.31048 3.28418,-5.95257 2.121033,-1.64209 6.431519,-1.64209 4.173645,0 8.963073,1.0263 2.736817,0.61579 4.105225,2.6684 l 6.842041,10.742 q 0.752624,1.16315 0.752624,2.6684 0,1.23157 -0.821045,4.51575 l -4.652587,18.88403 q -5.952576,24.08398 -9.92096,34.14178 -4.447327,11.08411 -11.357788,15.3946 -5.678894,3.55786 -13.205139,3.55786 -9.168335,0 -16.5577394,-5.6789 l -8.8946533,-6.77362 q -9.5788573,-7.32098 -9.5788573,-21.27875 0,-4.99469 1.368408,-11.15252 l 8.6209718,-38.8628 q 1.4368286,-6.43151 3.6947021,-8.48413 2.25787355,-2.12103 7.7315064,-2.12103 11.3577877,0 14.9156497,5.40521 l 6.431518,9.92096 z m 4.447327,-7.59466 -12.041992,46.32061 q -1.57367,5.88416 -3.147339,8.07361 -1.57367,2.18946 -4.242066,2.18946 -2.3262935,0 -3.8315426,-1.50525 -1.505249,-1.50525 -1.505249,-3.83155 0,-2.18945 1.2315674,-7.3894 l 9.4420162,-40.5733 q 0.684204,-2.87366 0.684204,-4.03681 0,-2.12103 -3.147338,-3.21576 -4.310486,-1.50525 -9.0314945,-1.50525 -4.6525879,0 -6.29467775,1.23157 -1.57366945,1.23157 -2.53155515,5.47363 l -9.3051756,41.94172 q -1.163147,5.13153 -1.163147,9.64727 0,9.85254 5.6104735,16.28406 7.11572261,8.27887 19.0208735,8.27887 14.505127,0 21.962952,-13.7525 2.668396,-5.06311 4.105225,-9.3736 1.436828,-4.31048 5.268371,-18.88403 l 3.626282,-13.61566 4.105225,-17.31037 q 0.410522,-1.71051 0.410522,-3.3526 0,-3.07891 -2.942077,-4.3789 -2.942078,-1.36841 -9.715699,-1.36841 -3.010498,0 -4.447326,1.02631 -1.436829,1.0263 -2.121033,3.62628 z"
             id="path4157"
             inkscape:connector-curvature="0" />
        </g>
        <g
           transform="translate(-94.449263,3.7082686)"
           id="g4186">
          <path
             inkscape:connector-curvature="0"
             id="path4265"
             d="m -31.098328,359.99573 3.010498,3.42102 q 1.57367,1.71051 1.57367,2.94208 0,1.29998 -0.342102,2.80523 l -12.178833,49.33112 q -0.615784,2.59997 -2.121033,3.55786 -1.505249,0.95789 -4.857849,0.95789 -8.142029,0 -12.657776,-3.07892 l -9.305176,-6.3631 q -2.463134,-1.71051 -2.463134,-3.83154 0,-1.36841 0.615783,-3.96839 l 11.015686,-45.43115 -1.573669,0 q -1.026306,0 -1.436829,-0.13684 -0.410522,-0.13684 -1.847351,-1.02631 l -8.34729,-5.61047 q -3.010498,-1.98419 -3.010498,-6.63678 0,-2.46314 0.821045,-6.3631 0.889465,-3.96838 1.915771,-6.22626 2.189454,-4.85785 8.415711,-4.85785 l 31.67865,0 q 10.536743,0 12.589355,0.34211 2.052613,0.3421 3.489441,2.39471 l 6.5683596,9.16834 q 1.0947265,1.50524 1.0947265,2.80523 0,1.77893 -0.9578857,5.88416 -0.9578854,4.0368 -1.9157714,6.56836 -1.368408,3.62628 -5.268372,3.55786 l -14.505127,-0.20526 z" />
          <path
             inkscape:connector-curvature="0"
             style="fill:#ffffff;fill-opacity:1"
             id="path4155"
             d="m -53.471802,351.58002 q -3.284179,10.3999 -4.926269,17.1051 l -8.963074,37.2207 q -0.684204,2.73682 -0.684204,3.14734 0,2.12103 3.763122,3.62628 3.831543,1.43683 9.236756,1.43683 3.899963,0 5.199951,-0.95788 1.299988,-0.95789 2.189453,-4.44733 l 11.357788,-46.66272 q 0.752625,-3.07892 0.752625,-4.24207 0,-1.50524 -0.957886,-2.39471 -0.957886,-0.88947 -3.763123,-2.05261 l -4.857849,-1.98419 18.884033,0 q 3.010499,0 4.173646,-0.88947 1.163146,-0.95789 2.257873,-4.17364 2.257874,-6.3631 2.257874,-10.33149 0,-2.80523 -1.57367,-3.55786 -1.505249,-0.75262 -7.184143,-0.75262 l -3.3526,0.0684 -35.03125,0 q -2.736816,0 -4.036804,1.16315 -1.231568,1.09472 -2.189453,4.31048 -1.778931,5.95258 -1.778931,10.19464 0,2.73682 1.026306,3.48944 1.094727,0.68421 5.06311,0.68421 l 13.136719,0 z" />
        </g>
        <g
           transform="translate(-165.66502,5.2654315)"
           id="g4198">
          <path
             d="m 233.41498,334.61176 3.07892,-2.80524 q 3.28418,-3.0105 6.36309,-3.0105 3.42103,0 5.74732,3.28418 l 5.67889,7.86835 q 6.3631,8.89465 6.3631,25.45239 0,22.71558 -10.60516,40.71014 -5.54206,9.3736 -13.27356,14.02619 -6.97888,4.17364 -13.88935,4.17364 -6.91046,0 -12.31567,-3.76312 l -9.30517,-6.49994 q -13.75251,-9.51044 -13.75251,-29.96814 0,-9.23675 3.21576,-19.91034 3.21576,-10.67358 8.27887,-18.19983 5.13153,-7.66308 12.65778,-12.52093 8.21045,-5.33679 15.39459,-5.33679 3.14734,0 4.37891,1.29998 1.29998,1.29999 1.98419,5.19996 z m -3.62628,6.29467 0.95788,-5.81573 q 0.20526,-1.23157 0.20526,-1.91577 0,-3.0105 -4.10522,-3.0105 -3.62628,0 -8.55255,2.25787 -4.92627,2.18946 -9.3736,5.88416 -9.51044,7.79992 -14.91565,23.19452 -4.17364,11.97357 -4.17364,23.4682 0,11.63147 6.08941,20.25244 7.18415,10.0578 18.06299,10.0578 11.42621,0 20.93665,-9.7157 8.62097,-8.68939 13.13672,-23.4682 3.96838,-12.93146 3.96838,-25.11029 0,-11.01569 -2.6684,-18.54193 -2.59997,-7.52625 -6.43151,-7.52625 -2.18946,0 -4.58417,2.18946 l -8.55255,7.79992 z m -1.02631,4.72101 q 2.05261,6.15784 2.05261,13.7525 0,6.15784 -1.77893,13.61567 -1.77893,7.45782 -4.44732,12.52093 -4.31049,8.21045 -8.21045,8.21045 -2.39472,0 -4.03681,-2.87366 -1.64209,-2.87365 -1.64209,-7.11572 0,-8.68939 4.37891,-18.67877 3.62628,-8.27887 9.98938,-12.58936 1.84735,-1.29999 2.18945,-1.98419 0.41052,-0.75262 1.50525,-4.85785 z m -8.75781,42.42066 q 5.67889,-7.04731 7.3894,-20.45771 -3.0105,4.10523 -4.99469,9.64728 -1.98419,5.54205 -2.39471,10.81043 z"
             id="path4163"
             inkscape:connector-curvature="0" />
        </g>
        <g
           transform="translate(-146.47212,4.3924786)"
           id="g4195">
          <path
             inkscape:connector-curvature="0"
             id="path4269"
             d="m 180.11548,333.65387 6.56836,9.78412 q 0.82104,1.29999 0.82104,2.94208 0,1.09472 -1.91577,7.66308 -7.3894,25.17871 -13.54724,51.58899 l -0.95789,3.96838 q -2.18945,9.16834 -2.94207,10.53675 -1.29999,2.18945 -6.43152,2.18945 -8.00519,0 -13.47882,-3.76312 l -8.62097,-6.021 q -3.48945,-2.39471 -3.48945,-6.43152 0,-3.28418 3.83155,-17.92614 1.71051,-6.77362 3.21576,-12.99988 3.48944,-13.95777 8.00519,-28.59973 l 1.3684,-4.58417 q 2.12104,-6.97888 2.6684,-8.34729 0.61578,-1.36841 1.98419,-2.6684 2.12103,-2.05261 7.73151,-2.05261 5.33679,0 9.51043,1.29999 4.24207,1.29999 5.6789,3.42102 z" />
          <path
             inkscape:connector-curvature="0"
             style="fill:#ffffff;fill-opacity:1"
             id="path4161"
             d="m 163.96826,331.12231 q -3.55786,0 -4.92627,1.36841 -1.29999,1.29999 -2.80523,6.22626 -1.64209,5.40521 -4.24207,13.68408 -4.72101,16.28406 -9.44202,35.44177 l -1.77893,7.11573 q -2.18945,9.16833 -2.18945,11.0841 0,3.14734 4.10522,4.99469 4.72101,2.12104 11.49463,2.12104 3.28418,0 4.44733,-1.16315 1.23157,-1.16315 2.25787,-5.47363 0.20526,-0.88947 0.82105,-3.14734 0.95788,-4.03681 3.28418,-13.47882 7.32098,-29.35236 12.11041,-44.95221 1.91577,-6.43152 1.91577,-7.66309 0,-3.21576 -3.76312,-4.44733 -5.19995,-1.71051 -11.28937,-1.71051 z" />
        </g>
        <g
           transform="translate(-127.02668,3.8451186)"
           id="g4192">
          <path
             d="m 71.121765,355.95892 q -1.64209,0.75263 -2.736816,0.75263 -1.984192,0 -3.28418,-1.23157 -1.231567,-1.23157 -1.231567,-3.07892 0,-1.43683 0.615783,-3.48944 l 3.421021,-11.28937 q 1.299988,-4.44732 5.131531,-6.02099 7.252563,-3.07892 18.199829,-3.07892 9.852534,0 17.857724,3.48944 9.64728,4.17364 14.71039,12.65778 l 4.78943,7.93676 q 6.08942,10.19464 6.08942,20.25244 0,15.59986 -10.26307,29.4892 -6.91046,9.3736 -17.24194,14.98407 -10.331481,5.54205 -20.799803,5.54205 -3.28418,0 -5.268372,-1.50524 L 73.037537,415.211 q -4.85785,-3.76312 -10.331482,-11.35779 -2.121033,-2.87366 -2.121033,-5.88415 0,-1.84736 1.915771,-10.53675 1.984192,-8.75781 3.626282,-14.36828 l 4.99469,-17.10511 z m 3.557861,-4.24206 -5.952575,20.18402 q -2.052613,7.0473 -3.968384,15.46301 -1.847351,8.34729 -1.847351,10.60517 0,1.77893 0.615784,2.87365 0.684204,1.09473 4.584167,5.74732 4.447327,5.40521 5.747315,6.29467 1.368408,0.88947 4.721008,0.88947 10.263061,0 20.936645,-6.021 12.452515,-6.97888 19.568235,-19.22613 6.97888,-11.90515 6.97888,-24.35767 0,-7.93677 -2.80523,-14.64197 -2.80524,-6.7052 -7.86835,-10.94726 -9.64728,-8.00519 -24.905029,-8.00519 -9.510437,0 -16.626159,2.94208 -1.778931,0.6842 -2.599976,1.64209 -0.752625,0.88946 -1.368408,2.87366 l -3.557862,11.83673 q -0.410522,1.43683 -0.410522,2.46313 0,1.91577 1.778931,1.91577 0.821045,0 6.978881,-2.53155 z m 6.363099,-1.71051 q 3.626281,-0.68421 6.226257,-0.68421 8.41571,0 13.273558,4.37891 4.85785,4.37891 4.85785,11.90515 0,5.33679 -2.32629,10.94727 -2.3263,5.61047 -6.363101,9.92096 -4.721009,4.99469 -12.041993,6.02099 l 8.142029,-30.37866 q 0.957886,-3.6947 0.957886,-4.92627 0,-4.92627 -12.726196,-7.18414 z m 16.899841,8.68939 2.805234,3.89996 q 1.57367,2.18946 1.57367,2.87366 0,0.61578 -0.27368,1.84735 l -2.942077,11.76831 q 3.899967,-5.54205 3.899967,-13.20514 0,-4.0368 -1.50525,-6.7052 -1.642093,-0.27368 -3.557864,-0.47894 z"
             id="path4159"
             inkscape:connector-curvature="0" />
        </g>
        <g
           transform="translate(-79.044436,3.4345886)"
           id="g4183">
          <path
             inkscape:connector-curvature="0"
             id="path4261"
             d="m -99.86084,360.74835 q -3.48944,0.0684 -3.48944,4.03681 0,1.57367 1.16315,3.76312 l 5.884151,10.53674 q 5.131531,9.23676 5.131531,17.31037 0,6.15783 -2.599975,11.97357 -2.531556,5.74731 -6.705197,8.96307 -7.59467,5.95258 -20.79981,5.95258 -13.34198,0 -17.17352,-3.14734 l -9.30518,-7.59467 q -1.57367,-1.23156 -2.05261,-2.32629 -0.47894,-1.16315 -0.47894,-3.62628 0,-3.21576 0.88946,-8.21045 0.88947,-5.06311 2.05262,-8.34729 1.50524,-4.24207 3.48944,-5.61048 2.05261,-1.43682 6.63678,-1.43682 7.79992,0 10.19464,1.91577 1.57367,1.36841 1.57367,6.02099 0.41052,0.0684 0.61578,0.0684 1.77893,0 1.77893,-2.32629 0,-3.0105 -2.94208,-8.07361 l -4.99469,-8.68939 q -5.40521,-9.30518 -5.40521,-15.7367 0,-5.95257 3.42102,-11.63147 3.48944,-5.74731 9.44202,-9.64727 10.33148,-6.7052 24.289244,-6.7052 5.199951,0 9.98938,1.0263 3.899963,0.82105 5.542053,3.3526 l 6.568359,10.26306 q 1.299988,1.9842 1.299988,3.62629 0,1.23156 -0.957886,5.95257 -0.957885,4.65259 -1.77893,7.52625 -0.752625,2.46313 -3.28418,3.55786 -2.463135,1.09473 -7.389404,1.09473 -6.020996,0 -7.526245,-1.23157 l -3.078919,-2.59998 z" />
          <path
             inkscape:connector-curvature="0"
             style="fill:#ffffff;fill-opacity:1"
             id="path4153"
             d="m -104.71869,351.03265 0,1.84735 q 0,0.0684 -0.0684,0.20527 -0.82104,1.71051 2.12103,1.98419 2.25788,0.27368 4.926273,0.27368 5.06311,0 7.115723,-0.75262 2.052612,-0.82105 3.147338,-3.14734 0.957886,-2.12104 1.984192,-7.04731 1.026306,-4.92627 1.026306,-7.32098 0,-3.96838 -4.105224,-5.26837 -4.242066,-1.29999 -10.605164,-1.29999 -14.710384,0 -24.973454,8.00519 -4.58416,3.48944 -7.18414,8.14203 -2.53155,4.65259 -2.53155,9.44201 0,5.74732 4.65258,13.75251 l 5.81574,10.0578 q 3.07892,5.33679 3.07892,9.16833 0,2.18945 -1.43683,3.48944 -1.43683,1.29999 -3.89996,1.29999 -1.09473,0 -2.80524,-0.20526 l 0.47894,-4.17365 q 0.13684,-0.82104 0.13684,-1.16314 0,-1.23157 -0.61578,-1.71051 -0.54736,-0.54737 -2.18945,-0.75263 -3.83155,-0.47894 -6.84205,-0.47894 -3.28418,0 -4.721,0.82104 -1.43683,0.75263 -2.25788,3.07892 -1.36841,3.76313 -2.39471,8.82624 -1.02631,5.06311 -1.02631,8.0736 0,4.51575 3.89997,6.08942 4.17364,1.71051 14.98407,1.71051 15.25775,0 23.12609,-8.68939 6.157841,-6.77362 6.157841,-18.06299 0,-8.27887 -5.952571,-18.74719 l -4.99469,-8.68939 q -1.23157,-2.12104 -1.23157,-4.03681 0,-4.58417 7.18414,-4.72101 z" />
        </g>
      </g>
    </g>
    <g
       id="g4341">
      <rect
         inkscape:tile-y0="91.228416"
         inkscape:tile-x0="-86.862968"
         y="976.36218"
         x="86"
         height="68"
         width="68"
         id="use5854"
         style="opacity:1;fill:#c0c0c0;fill-opacity:1;stroke:#0d0000;stroke-width:2;stroke-linecap:round;stroke-linejoin:round;stroke-miterlimit:4;stroke-dasharray:none;stroke-dashoffset:0;stroke-opacity:1" />
      <rect
         inkscape:tile-y0="91.228416"
         inkscape:tile-x0="-86.862968"
         y="976.36218"
         x="164"
         height="68"
         width="68"
         id="use5860"
         style="opacity:1;fill:#c0c0c0;fill-opacity:1;stroke:#0d0000;stroke-width:2;stroke-linecap:round;stroke-linejoin:round;stroke-miterlimit:4;stroke-dasharray:none;stroke-dashoffset:0;stroke-opacity:1" />
      <g
         id="g4712"
         transform="translate(96.862968,-14.082974)">
        <rect
           style="opacity:1;fill:#ffffff;fill-opacity:1;stroke:#0d0000;stroke-width:2;stroke-linecap:round;stroke-linejoin:round;stroke-miterlimit:4;stroke-dasharray:none;stroke-dashoffset:0;stroke-opacity:1"
           id="rect5727"
           width="68"
           height="68"
           x="-88.862968"
           y="834.44513"
           inkscape:tile-cx="-52.780472"
           inkscape:tile-cy="125.31091"
           inkscape:tile-w="68.164993"
           inkscape:tile-h="68.164993"
           inkscape:tile-x0="-86.862968"
           inkscape:tile-y0="91.228416" />
        <path
           inkscape:transform-center-x="-7.1887478"
           d="m -32.247564,868.4552 -43.132488,24.90255 0,-49.8051 z"
           inkscape:randomized="0"
           inkscape:rounded="0"
           inkscape:flatsided="true"
           sodipodi:arg2="1.0471976"
           sodipodi:arg1="0"
           sodipodi:r2="14.377495"
           sodipodi:r1="28.754992"
           sodipodi:cy="868.4552"
           sodipodi:cx="-61.002556"
           sodipodi:sides="3"
           id="path4187"
           style="opacity:1;fill:#abffa5;fill-opacity:1;stroke:#0d0000;stroke-width:2;stroke-linecap:round;stroke-linejoin:round;stroke-miterlimit:4;stroke-dasharray:none;stroke-dashoffset:0;stroke-opacity:1"
           sodipodi:type="star" />
      </g>
      <g
         id="g4720"
         transform="translate(96.862968,-14.082974)">
        <use
           height="100%"
           width="100%"
           x="0"
           y="0"
           inkscape:tiled-clone-of="#rect5727"
           xlink:href="#rect5727"
           transform="translate(78,3.945312e-7)"
           id="use5850" />
        <rect
           style="opacity:1;fill:#ff5858;fill-opacity:1;stroke:#000000;stroke-width:2;stroke-linecap:round;stroke-linejoin:round;stroke-miterlimit:4;stroke-dasharray:none;stroke-dashoffset:0;stroke-opacity:1"
           id="rect4235"
           width="39.39595"
           height="34.345188"
           x="3.4390564"
           y="851.27252" />
      </g>
      <g
         id="g4726"
         transform="translate(96.862968,-14.082974)">
        <use
           height="100%"
           width="100%"
           x="0"
           y="0"
           inkscape:tiled-clone-of="#rect5727"
           xlink:href="#rect5727"
           transform="translate(156,3.945312e-7)"
           id="use5856" />
        <g
           transform="translate(0.7576144,-1.5152288)"
           id="g4636"
           style="fill:#a5d6ff;fill-opacity:1">
          <g
             transform="matrix(0.89506511,0,0,0.89506511,9.219038,92.453173)"
             id="g4706"
             style="fill:#a5d6ff;fill-opacity:1">
            <g
               style="fill:#a5d6ff;fill-opacity:1;stroke-width:2.23447442;stroke-miterlimit:4;stroke-dasharray:none"
               id="g4693">
              <path
                 sodipodi:nodetypes="ccssscscsssccc"
                 inkscape:connector-curvature="0"
                 id="path4702"
                 d="m 100.71572,898.772 -0.39648,-6.53711 13.95703,0 c 11.19488,0 20.39453,-9.19965 20.39453,-20.39454 l 0,-5.49609 c 0,-11.19488 -9.19965,-20.39453 -20.39453,-20.39453 -3.3469,-0.0473 -6.08594,2.65277 -6.08594,6 0,3.34723 2.73904,6.04733 6.08594,6 4.75444,0 8.39453,3.64009 8.39453,8.39453 l 0,5.49609 c 0,4.75445 -3.64009,8.39454 -8.39453,8.39454 l -18.777351,0 c -5.7122,0.36821 -11.69134,0.21316 -17.51562,0.24218 z"
                 style="color:#000000;font-style:normal;font-variant:normal;font-weight:normal;font-stretch:normal;font-size:medium;line-height:normal;font-family:sans-serif;text-indent:0;text-align:start;text-decoration:none;text-decoration-line:none;text-decoration-style:solid;text-decoration-color:#000000;letter-spacing:normal;word-spacing:normal;text-transform:none;direction:ltr;block-progression:tb;writing-mode:lr-tb;baseline-shift:baseline;text-anchor:start;white-space:normal;clip-rule:nonzero;display:inline;overflow:visible;visibility:visible;opacity:1;isolation:auto;mix-blend-mode:normal;color-interpolation:sRGB;color-interpolation-filters:linearRGB;solid-color:#000000;solid-opacity:1;fill:#a5d6ff;fill-opacity:1;fill-rule:nonzero;stroke:#000000;stroke-width:2.23447442;stroke-linecap:round;stroke-linejoin:round;stroke-miterlimit:4;stroke-dasharray:none;stroke-dashoffset:0;stroke-opacity:1;color-rendering:auto;image-rendering:auto;shape-rendering:auto;text-rendering:auto;enable-background:accumulate" />
              <path
                 style="color:#000000;font-style:normal;font-variant:normal;font-weight:normal;font-stretch:normal;font-size:medium;line-height:normal;font-family:sans-serif;text-indent:0;text-align:start;text-decoration:none;text-decoration-line:none;text-decoration-style:solid;text-decoration-color:#000000;letter-spacing:normal;word-spacing:normal;text-transform:none;direction:ltr;block-progression:tb;writing-mode:lr-tb;baseline-shift:baseline;text-anchor:start;white-space:normal;clip-rule:nonzero;display:inline;overflow:visible;visibility:visible;opacity:1;isolation:auto;mix-blend-mode:normal;color-interpolation:sRGB;color-interpolation-filters:linearRGB;solid-color:#000000;solid-opacity:1;fill:#a5d6ff;fill-opacity:1;fill-rule:nonzero;stroke:#000000;stroke-width:2.23447442;stroke-linecap:round;stroke-linejoin:round;stroke-miterlimit:4;stroke-dasharray:none;stroke-dashoffset:0;stroke-opacity:1;color-rendering:auto;image-rendering:auto;shape-rendering:auto;text-rendering:auto;enable-background:accumulate"
                 d="m 103.79117,839.50928 0.39648,6.53711 -13.957034,0 c -11.19488,0 -20.39453,9.19965 -20.39453,20.39454 l 0,5.49609 c 0,11.19488 9.19965,20.39453 20.39453,20.39453 3.3469,0.0473 6.08594,-2.65277 6.08594,-6 0,-3.34723 -2.73904,-6.04733 -6.08594,-6 -4.75444,0 -8.39453,-3.64009 -8.39453,-8.39453 l 0,-5.49609 c 0,-4.75445 3.64009,-8.39454 8.39453,-8.39454 l 18.777354,0 c 5.7122,-0.36821 11.69134,-0.21316 17.51562,-0.24218 z"
                 id="rect4666"
                 inkscape:connector-curvature="0"
                 sodipodi:nodetypes="ccssscscsssccc" />
              <path
                 style="color:#000000;font-style:normal;font-variant:normal;font-weight:normal;font-stretch:normal;font-size:medium;line-height:normal;font-family:sans-serif;text-indent:0;text-align:start;text-decoration:none;text-decoration-line:none;text-decoration-style:solid;text-decoration-color:#000000;letter-spacing:normal;word-spacing:normal;text-transform:none;direction:ltr;block-progression:tb;writing-mode:lr-tb;baseline-shift:baseline;text-anchor:start;white-space:normal;clip-rule:nonzero;display:inline;overflow:visible;visibility:visible;opacity:1;isolation:auto;mix-blend-mode:normal;color-interpolation:sRGB;color-interpolation-filters:linearRGB;solid-color:#000000;solid-opacity:1;fill:#a5d6ff;fill-opacity:1;fill-rule:nonzero;stroke:#000000;stroke-width:2.23447442;stroke-linecap:round;stroke-linejoin:round;stroke-miterlimit:4;stroke-dasharray:none;stroke-dashoffset:0;stroke-opacity:1;color-rendering:auto;image-rendering:auto;shape-rendering:auto;text-rendering:auto;enable-background:accumulate"
                 d="m 122.6708,866.34426 0,5.49609 c 0,4.75445 -3.64009,8.39454 -8.39453,8.39454 l -18.777351,0 c -5.7122,0.36821 -11.69134,0.21316 -17.51562,0.24218 l 22.732421,18.29493 -0.39648,-6.53711 13.95703,0 c 11.19488,0 20.39453,-9.19965 20.39453,-20.39454 l 0,-5.49609"
                 id="path4704"
                 inkscape:connector-curvature="0"
                 sodipodi:nodetypes="cssccccssc" />
            </g>
          </g>
        </g>
      </g>
      <g
         id="g4548">
        <use
           height="100%"
           width="100%"
           x="0"
           y="0"
           inkscape:tiled-clone-of="#rect5727"
           xlink:href="#rect5727"
           transform="translate(96.862968,63.917031)"
           id="use5846" />
        <g
           transform="translate(96.862968,-14.082974)"
           id="g8987">
          <path
             inkscape:connector-curvature="0"
             style="opacity:1;fill:#818181;fill-opacity:1;stroke:#000000;stroke-width:2;stroke-linecap:round;stroke-linejoin:round;stroke-miterlimit:4;stroke-dasharray:none;stroke-dashoffset:0;stroke-opacity:1"
             d="m -67.184258,929.65997 0,8.92774 -15.625,0 0,29.28515 55.892578,0 0,-29.28515 -15.625,0 0,-8.92774 -24.642578,0 z"
             id="rect8907" />
          <circle
             style="opacity:1;fill:#3a3a3a;fill-opacity:1;stroke:#000000;stroke-width:2;stroke-linecap:round;stroke-linejoin:round;stroke-miterlimit:4;stroke-dasharray:none;stroke-dashoffset:0;stroke-opacity:1"
             id="path8912"
             cx="-54.952393"
             cy="951.62372"
             r="16.25" />
          <circle
             r="12.5"
             cy="951.62372"
             cx="-54.952393"
             id="circle8914"
             style="opacity:1;fill:#d0d0d0;fill-opacity:1;stroke:#000000;stroke-width:2;stroke-linecap:round;stroke-linejoin:round;stroke-miterlimit:4;stroke-dasharray:none;stroke-dashoffset:0;stroke-opacity:1" />
          <circle
             style="opacity:1;fill:#ffffff;fill-opacity:1;stroke:none;stroke-width:2;stroke-linecap:round;stroke-linejoin:round;stroke-miterlimit:4;stroke-dasharray:none;stroke-dashoffset:0;stroke-opacity:1"
             id="path8916"
             cx="-49.952396"
             cy="947.5166"
             r="2.5" />
          <rect
             style="opacity:1;fill:#ffffff;fill-opacity:1;stroke:#000000;stroke-width:1.99999988;stroke-linecap:round;stroke-linejoin:round;stroke-miterlimit:4;stroke-dasharray:none;stroke-dashoffset:0;stroke-opacity:1"
             id="rect8918"
             width="5.4295697"
             height="3.914341"
             x="-36.042297"
             y="934.49402" />
        </g>
      </g>
      <g
         id="g8994"
         transform="translate(96.862968,-14.082974)">
        <use
           height="100%"
           width="100%"
           x="0"
           y="0"
           inkscape:tiled-clone-of="#rect5727"
           xlink:href="#rect5727"
           transform="translate(78,78.000005)"
           id="use5852" />
        <g
           transform="matrix(1.2496262,0,0,1.2495972,-8.7051522,-237.71499)"
           id="g8965">
          <path
             inkscape:connector-curvature="0"
             id="path8963"
             d="m 32.661939,926.38587 a 6.8004043,6.7949088 0 0 0 -6.80066,6.7946 6.8004043,6.7949088 0 0 0 3.42814,5.8948 l 0,2.5841 -3.301,0 c -0.69585,0 -1.00782,-0.017 -1.4382,-0.028 -0.005,-0.2495 -0.0154,-0.2865 -0.0154,-0.6167 l 0,-3.7201 a 3.0515132,3.0753321 0 0 0 -3.09689,-3.118 3.0515132,3.0753321 0 0 0 -3.00552,3.118 l 0,3.7201 c 0,0.93 -0.0206,1.6798 0.0983,2.5636 0.11891,0.8838 0.52931,2.2001 1.58222,3.0695 1.0529,0.8695 2.11724,1.0101 2.99458,1.0906 0.87736,0.08 1.7547,0.071 2.88088,0.071 l 3.301,0 0,5.7982 -2.27351,0 c -1.12618,0 -2.01211,-0.014 -2.94145,0.09 -0.92934,0.104 -2.15676,0.3698 -3.15749,1.3783 -1.00072,1.0086 -1.26491,2.246 -1.36817,3.1826 -0.10326,0.9366 -0.0889,1.829 -0.0889,2.9639 l 0,4.54 a 3.0515132,3.0753321 0 1 0 6.10242,0 l 0,-4.54 c 0,-0.7113 0.0189,-1.0115 0.0323,-1.4318 0.41709,-0.014 0.71542,-0.032 1.42132,-0.032 l 2.97473,0 0,1.1702 c 0,1.135 -0.0139,2.0273 0.0894,2.9639 0.10325,0.9366 0.36696,2.1742 1.36768,3.1826 1.00072,1.0086 2.22864,1.2744 3.15798,1.3784 0.92934,0.1041 1.81478,0.09 2.94095,0.09 l 4.50481,0 a 3.0515132,3.0753321 0 1 0 0,-6.15 l -4.50481,0 c -0.70589,0 -1.00422,-0.019 -1.42131,-0.032 -0.0135,-0.4204 -0.0323,-0.7208 -0.0323,-1.4324 l 0,-4.54 a 3.0515132,3.0753321 0 0 0 -0.70122,-2.0039 l 0,-6.5735 3.72462,0 c 0.69584,0 1.00781,0.016 1.4382,0.028 0.005,0.2495 0.0154,0.2868 0.0154,0.6171 l 0,3.7197 a 3.0515132,3.0753321 0 1 0 6.10242,0 l 0,-3.7197 c 0,-0.9299 0.0206,-1.6803 -0.0983,-2.564 -0.11893,-0.8837 -0.52932,-2.2001 -1.58223,-3.0695 -1.0529,-0.8695 -2.11724,-1.0101 -2.99459,-1.0906 -0.87736,-0.081 -1.75469,-0.071 -2.88087,-0.071 l -3.72462,0 0,-2.2652 a 6.8004043,6.7949088 0 0 0 4.07026,-6.2146 6.8004043,6.7949088 0 0 0 -6.80015,-6.7947 z"
             style="color:#000000;font-style:normal;font-variant:normal;font-weight:normal;font-stretch:normal;font-size:medium;line-height:normal;font-family:sans-serif;text-indent:0;text-align:start;text-decoration:none;text-decoration-line:none;text-decoration-style:solid;text-decoration-color:#000000;letter-spacing:normal;word-spacing:normal;text-transform:none;direction:ltr;block-progression:tb;writing-mode:lr-tb;baseline-shift:baseline;text-anchor:start;white-space:normal;clip-rule:nonzero;display:inline;overflow:visible;visibility:visible;opacity:0.58499995;isolation:auto;mix-blend-mode:normal;color-interpolation:sRGB;color-interpolation-filters:linearRGB;solid-color:#000000;solid-opacity:1;fill:#ff9494;fill-opacity:1;fill-rule:evenodd;stroke:#000000;stroke-width:1.60049713;stroke-linecap:round;stroke-linejoin:round;stroke-miterlimit:4;stroke-dasharray:none;stroke-dashoffset:0;stroke-opacity:1;color-rendering:auto;image-rendering:auto;shape-rendering:auto;text-rendering:auto;enable-background:accumulate" />
          <path
             style="color:#000000;font-style:normal;font-variant:normal;font-weight:normal;font-stretch:normal;font-size:medium;line-height:normal;font-family:sans-serif;text-indent:0;text-align:start;text-decoration:none;text-decoration-line:none;text-decoration-style:solid;text-decoration-color:#000000;letter-spacing:normal;word-spacing:normal;text-transform:none;direction:ltr;block-progression:tb;writing-mode:lr-tb;baseline-shift:baseline;text-anchor:start;white-space:normal;clip-rule:nonzero;display:inline;overflow:visible;visibility:visible;opacity:1;isolation:auto;mix-blend-mode:normal;color-interpolation:sRGB;color-interpolation-filters:linearRGB;solid-color:#000000;solid-opacity:1;fill:#ff9494;fill-opacity:1;fill-rule:evenodd;stroke:#000000;stroke-width:1.60049713;stroke-linecap:round;stroke-linejoin:round;stroke-miterlimit:4;stroke-dasharray:none;stroke-dashoffset:0;stroke-opacity:1;color-rendering:auto;image-rendering:auto;shape-rendering:auto;text-rendering:auto;enable-background:accumulate"
             d="m 18.519803,926.38587 a 6.8004043,6.7949088 0 0 0 -6.800659,6.7946 6.8004043,6.7949088 0 0 0 3.428139,5.8948 l 0,2.5841 -3.300999,0 c -0.69585,0 -1.00782,-0.017 -1.4382,-0.028 -0.005,-0.2495 -0.0154,-0.2865 -0.0154,-0.6167 l 0,-3.7201 a 3.0515132,3.0753321 0 0 0 -3.0968904,-3.118 3.0515132,3.0753321 0 0 0 -3.0055199,3.118 l 0,3.7201 c 0,0.93 -0.0206,1.6798 0.0983,2.5636 0.11891,0.8838 0.52931,2.2001 1.5822199,3.0695 1.0529,0.8695 2.11724,1.0101 2.99458,1.0906 0.87736,0.08 1.7547004,0.071 2.8808804,0.071 l 3.300999,0 0,5.7982 -2.273509,0 c -1.12618,0 -2.01211,-0.014 -2.9414504,0.09 -0.92934,0.104 -2.15676,0.3698 -3.15749,1.3783 -1.00072,1.0086 -1.2649099,2.246 -1.3681699,3.1826 -0.10326,0.9366 -0.0889,1.829 -0.0889,2.9639 l 0,4.54 a 3.0515132,3.0753321 0 1 0 6.1024203,0 l 0,-4.54 c 0,-0.7113 0.0189,-1.0115 0.0323,-1.4318 0.41709,-0.014 0.71542,-0.032 1.42132,-0.032 l 2.974729,0 0,1.1702 c 0,1.135 -0.0139,2.0273 0.0894,2.9639 0.10325,0.9366 0.36696,2.1742 1.36768,3.1826 1.00072,1.0086 2.22864,1.2744 3.15798,1.3784 0.92934,0.1041 1.81478,0.09 2.94095,0.09 l 4.50481,0 a 3.0515132,3.0753321 0 1 0 0,-6.15 l -4.50481,0 c -0.70589,0 -1.00422,-0.019 -1.42131,-0.032 -0.0135,-0.4204 -0.0323,-0.7208 -0.0323,-1.4324 l 0,-4.54 a 3.0515132,3.0753321 0 0 0 -0.70122,-2.0039 l 0,-6.5735 3.72462,0 c 0.69584,0 1.00781,0.016 1.4382,0.028 0.005,0.2495 0.0154,0.2868 0.0154,0.6171 l 0,3.7197 a 3.0515132,3.0753321 0 1 0 6.10242,0 l 0,-3.7197 c 0,-0.9299 0.0206,-1.6803 -0.0983,-2.564 -0.11893,-0.8837 -0.52932,-2.2001 -1.58223,-3.0695 -1.0529,-0.8695 -2.11724,-1.0101 -2.99459,-1.0906 -0.87736,-0.081 -1.75469,-0.071 -2.88087,-0.071 l -3.72462,0 0,-2.2652 a 6.8004043,6.7949088 0 0 0 4.07026,-6.2146 6.8004043,6.7949088 0 0 0 -6.80015,-6.7947 z"
             id="path8938"
             inkscape:connector-curvature="0" />
        </g>
      </g>
      <g
         id="g4468">
        <rect
           transform="translate(96.862968,-14.08297)"
           inkscape:tile-y0="91.228416"
           inkscape:tile-x0="-86.862968"
           y="912.44513"
           x="67.137032"
           height="68"
           width="68"
           id="use5858"
           style="opacity:1;fill:none;fill-opacity:1;stroke:#0d0000;stroke-width:2;stroke-linecap:round;stroke-linejoin:round;stroke-miterlimit:4;stroke-dasharray:none;stroke-dashoffset:0;stroke-opacity:1" />
        <g
           transform="matrix(1.0729141,0,0,1.0724629,-304.4241,9.5397801)"
           id="g4266">
          <g
             id="g4363"
             transform="translate(367.46512,-88.571429)">
            <rect
               style="opacity:1;fill:#c0c0c0;fill-opacity:1;stroke:#000000;stroke-width:1.86447418;stroke-linecap:round;stroke-linejoin:round;stroke-miterlimit:4;stroke-dasharray:none;stroke-dashoffset:0;stroke-opacity:1"
               id="rect4328"
               width="37.5"
               height="38.928581"
               x="82.065605"
               y="936.08801" />
            <path
               id="rect4330"
               transform="translate(-96.862968,698.44513)"
               d="m 191.25,227.28516 0,5.35742 -14.82227,0 0,6.78515 42.5,0 0,-6.78515 -14.82031,0 0,-5.35742 -12.85742,0 z"
               style="opacity:1;fill:#c0c0c0;fill-opacity:1;stroke:#000000;stroke-width:1.86447418;stroke-linecap:round;stroke-linejoin:round;stroke-miterlimit:4;stroke-dasharray:none;stroke-dashoffset:0;stroke-opacity:1"
               inkscape:connector-curvature="0" />
            <path
               style="fill:none;fill-rule:evenodd;stroke:#000000;stroke-width:1.86447418;stroke-linecap:butt;stroke-linejoin:miter;stroke-miterlimit:4;stroke-dasharray:none;stroke-opacity:1"
               d="m 100.45846,943.23084 0,29.28572"
               id="path4332"
               inkscape:connector-curvature="0"
               sodipodi:nodetypes="cc" />
            <path
               style="fill:none;fill-rule:evenodd;stroke:#000000;stroke-width:1.86447418;stroke-linecap:butt;stroke-linejoin:miter;stroke-miterlimit:4;stroke-dasharray:none;stroke-opacity:1"
               d="m 89.208458,943.23084 0,29.28572"
               id="path4336"
               inkscape:connector-curvature="0"
               sodipodi:nodetypes="cc" />
            <path
               style="fill:none;fill-rule:evenodd;stroke:#000000;stroke-width:1.86447418;stroke-linecap:butt;stroke-linejoin:miter;stroke-miterlimit:4;stroke-dasharray:none;stroke-opacity:1"
               d="m 111.70846,943.23084 0,29.28572"
               id="path4340"
               inkscape:connector-curvature="0"
               sodipodi:nodetypes="cc" />
          </g>
        </g>
      </g>
      <g
         id="g4333">
        <rect
           inkscape:tile-y0="91.228416"
           inkscape:tile-x0="-86.862968"
           y="976.36218"
           x="7.9999995"
           height="68"
           width="68"
           id="use5848"
           style="opacity:1;fill:none;fill-opacity:1;stroke:#0d0000;stroke-width:2;stroke-linecap:round;stroke-linejoin:round;stroke-miterlimit:4;stroke-dasharray:none;stroke-dashoffset:0;stroke-opacity:1" />
        <path
           style="opacity:1;fill:#ffff00;fill-opacity:1;stroke:#0d0000;stroke-width:2;stroke-linecap:round;stroke-linejoin:round;stroke-miterlimit:4;stroke-dasharray:none;stroke-dashoffset:0;stroke-opacity:1"
           d="M 8 308.53516 L 8 344.96484 L 76 344.96484 L 76 308.53516 L 8 308.53516 z "
           id="rect4311"
           transform="translate(0,684.36216)" />
        <path
           style="opacity:1;fill:#000000;fill-opacity:1;stroke:none;stroke-width:2;stroke-linecap:round;stroke-linejoin:round;stroke-miterlimit:4;stroke-dasharray:none;stroke-dashoffset:0;stroke-opacity:1"
           d="M 8 308.53516 L 8 314.25781 L 14.873047 308.53516 L 8 308.53516 z M 22.974609 308.71484 L 8 321.18164 L 8 329.03906 L 32.410156 308.71484 L 22.974609 308.71484 z M 40.724609 308.71484 L 8 335.96289 L 8 343.81836 L 50.162109 308.71484 L 40.724609 308.71484 z M 58.476562 308.71484 L 15.367188 344.60742 L 24.804688 344.60742 L 67.912109 308.71484 L 58.476562 308.71484 z M 76 308.90234 L 33.333984 344.42773 L 42.769531 344.42773 L 76 316.75977 L 76 308.90234 z M 76 323.68359 L 50.869141 344.60742 L 60.306641 344.60742 L 76 331.54102 L 76 323.68359 z M 76 338.46289 L 68.621094 344.60742 L 76 344.60742 L 76 338.46289 z "
           id="rect4272"
           transform="translate(0,684.36216)" />
        <rect
           style="opacity:1;fill:#ffff00;fill-opacity:1;stroke:none;stroke-width:2;stroke-linecap:round;stroke-linejoin:round;stroke-miterlimit:4;stroke-dasharray:none;stroke-dashoffset:0;stroke-opacity:1"
           id="rect4317"
           width="53.033009"
           height="17.172594"
           x="16.667517"
           y="1002.1071" />
        <text
           xml:space="preserve"
           style="font-style:normal;font-variant:normal;font-weight:bold;font-stretch:normal;font-size:11.14199996px;line-height:125%;font-family:'M+ 1p';-inkscape-font-specification:'M+ 1p, Bold';letter-spacing:0px;word-spacing:0px;fill:#000000;fill-opacity:1;stroke:none;stroke-width:1px;stroke-linecap:butt;stroke-linejoin:miter;stroke-opacity:1;text-anchor:start;text-align:start;writing-mode:lr;"
           x="17.502979"
           y="1015.0087"
           id="text4319"
           sodipodi:linespacing="125%"><tspan
             sodipodi:role="line"
             id="tspan4321"
             x="17.502979"
             y="1015.0087">PROTECT</tspan></text>
      </g>
    </g>
  </g>
</svg>
